<svg width="584" height="171" viewBox="0 0 584 171" fill="none" xmlns="http://www.w3.org/2000/svg">
<g clip-path="url(#clip0_503_3)">
<g clip-path="url(#clip1_503_3)">
<path d="M146.492 79.1117C145.545 78.8524 144.592 78.8177 143.656 78.9161C144.144 76.868 143.85 74.7454 142.775 72.9075C141.666 71.0058 139.877 69.6322 137.738 69.0484C136.415 68.6861 135.065 68.6861 133.768 68.9625C133.58 68.2249 133.327 67.5014 132.931 66.8223C131.82 64.9192 130.03 63.5471 127.89 62.9633C126.953 62.7055 126.015 62.6517 125.098 62.7138L128.457 50.4565C129.042 48.324 128.747 46.0918 127.624 44.1695C126.514 42.2664 124.724 40.8942 122.582 40.3058C118.138 39.0957 113.556 41.667 112.357 46.0427L103.393 78.7516C98.7468 77.7118 94.4281 79.3018 92.2625 83.1831C89.4195 88.2884 88.17 94.5863 88.5499 101.897C88.8361 107.399 91.3262 113.535 96.1645 120.659C96.707 121.454 97.5859 121.883 98.4781 121.883C99.0185 121.883 99.5671 121.726 100.046 121.402C101.324 120.534 101.655 118.796 100.789 117.519C96.5988 111.351 94.3588 105.999 94.1315 101.605C93.8023 95.2739 94.7883 90.1385 97.1464 85.9055C98.1101 84.1757 100.003 83.7782 101.919 84.1312L100.593 88.971C100.183 90.459 101.061 91.9952 102.547 92.4036C102.795 92.4719 103.045 92.504 103.288 92.504C104.516 92.504 105.64 91.6883 105.98 90.4481L108.019 83.0099C108.02 83.0037 108.023 82.9955 108.025 82.9892L117.744 47.519C118.129 46.1101 119.635 45.2914 121.102 45.695C121.824 45.8937 122.425 46.3518 122.793 46.9858C123.152 47.5997 123.248 48.3041 123.065 48.9764L117.663 68.6858C117.663 68.6889 117.66 68.692 117.66 68.6951C117.658 68.6982 117.658 68.7028 117.658 68.7065L114.709 79.469C114.3 80.957 115.176 82.4932 116.665 82.9016C118.156 83.3229 119.69 82.4327 120.097 80.9456L123.052 70.1624C123.444 68.7649 124.936 67.9425 126.41 68.353C127.13 68.5486 127.731 69.0051 128.098 69.6391C128.457 70.253 128.553 70.9605 128.37 71.6313L125.417 82.4037C125.417 82.4068 125.417 82.4114 125.415 82.415L125.015 83.8761C124.606 85.3641 125.482 86.9003 126.971 87.3087C128.464 87.7269 129.995 86.8382 130.403 85.3527L132.895 76.2547C133.079 75.5839 133.523 75.0255 134.143 74.6808C134.783 74.3247 135.525 74.2356 136.255 74.4375C136.976 74.6347 137.575 75.0912 137.946 75.7221C138.305 76.3375 138.4 77.0451 138.216 77.7143L135.056 89.2418C134.646 90.7313 135.524 92.2675 137.012 92.6743C137.259 92.7442 137.507 92.7747 137.751 92.7747C138.979 92.7747 140.105 91.959 140.445 90.7188L141.421 87.1506L141.423 87.1491C141.924 85.3158 143.58 84.114 145.012 84.4969C146.452 84.8929 147.245 86.7769 146.743 88.6086C146.727 88.6738 146.709 88.7405 146.698 88.8073C146.654 89.0397 141.944 112.395 130.105 126.551C129.115 127.734 129.272 129.497 130.457 130.486C130.978 130.925 131.616 131.139 132.247 131.139C133.045 131.139 133.839 130.798 134.392 130.135C146.893 115.192 151.776 91.9185 152.166 89.9813C153.427 85.1782 150.897 80.3161 146.493 79.109L146.492 79.1117Z" fill="white"/>
<path d="M68.3729 79.0283C65.6924 75.4824 61.1956 74.5032 56.7387 76.1744L43.3483 45.0131C41.5579 40.8455 36.6591 38.93 32.4284 40.744C28.1987 42.5629 26.218 47.4348 28.0114 51.6069L33.0309 63.2856C32.1132 63.3508 31.193 63.532 30.3007 63.9155C27.4276 65.151 25.6312 67.7984 25.3113 70.676C24.0091 70.5793 22.67 70.7506 21.387 71.3008C19.3472 72.177 17.765 73.7825 16.9271 75.8197C16.1176 77.7895 16.1192 79.9313 16.8841 81.8903C15.9442 81.9239 15.0033 82.089 14.1 82.4752C9.90563 84.2815 8.07077 89.4458 9.9838 94.0265C10.6391 95.8981 18.6843 118.271 33.1249 131.349C33.6591 131.834 34.3304 132.071 35.0011 132.071C35.7609 132.071 36.5213 131.763 37.073 131.153C38.1082 130.009 38.0207 128.242 36.8758 127.205C23.1952 114.816 15.3115 92.334 15.2346 92.1088C15.2123 92.0435 15.187 91.9814 15.1601 91.9193C14.4111 90.1719 14.936 88.2006 16.3081 87.609C17.6817 87.022 19.4736 87.9951 20.2272 89.7363L21.6898 93.1403C22.1448 94.1993 23.1747 94.8323 24.2591 94.8323C24.6266 94.8323 25.0019 94.7594 25.3595 94.6036C26.7792 93.9944 27.4329 92.3505 26.8238 90.934L25.3641 87.5345V87.533V87.5314L22.106 79.9489C21.8311 79.3112 21.8291 78.5975 22.0998 77.9391C22.3782 77.2616 22.9092 76.7259 23.5945 76.4319C24.9873 75.8372 26.5964 76.4335 27.1736 77.7756L30.8975 86.4394C31.5051 87.8545 33.1459 88.5113 34.5687 87.902C35.9868 87.2913 36.6406 85.649 36.0313 84.2293L33.9233 79.3241L31.0202 72.565C30.4446 71.2261 31.1123 69.6474 32.5097 69.0465C33.901 68.4549 35.5054 69.0449 36.0857 70.384L40.4995 80.6538C41.1087 82.0689 42.7509 82.7287 44.1723 82.1164C45.5888 81.5057 46.2442 79.8634 45.6349 78.4437L41.2272 68.1884C41.2256 68.1853 41.2256 68.1838 41.2256 68.1807C41.2256 68.1791 41.2241 68.1776 41.2225 68.1745L33.152 49.3952C32.5764 48.0563 33.2441 46.4776 34.6415 45.8767C36.0328 45.2804 37.6434 45.8767 38.2206 47.2188L52.7453 81.0142C52.7468 81.0173 52.7484 81.0204 52.7499 81.0256L55.7964 88.1138C56.2513 89.1728 57.2813 89.8043 58.3641 89.8043C58.7315 89.8043 59.1068 89.7313 59.4644 89.5771C60.8842 88.9663 61.5394 87.324 60.9287 85.9059L58.9474 81.2979C60.7967 80.6841 62.7237 80.8161 63.9178 82.3952C66.8354 86.2605 68.5227 91.21 69.0692 97.532C69.4491 101.914 67.9689 107.525 64.6714 114.208C63.9862 115.592 64.5555 117.269 65.9385 117.951C66.336 118.147 66.7588 118.24 67.1739 118.24C68.2044 118.24 69.1951 117.669 69.6816 116.684C73.4915 108.966 75.1131 102.541 74.6359 97.0502C74.004 89.7545 71.8974 83.6915 68.3737 79.0288L68.3729 79.0283Z" fill="white"/>
<path d="M74.2362 32.7725H59.8692L61.3128 31.3306C62.4049 30.24 62.4049 28.4699 61.3128 27.3794C60.2207 26.2889 58.4521 26.2873 57.3616 27.3794L51.1466 33.5914C51.0177 33.7203 50.9033 33.8616 50.8013 34.0127C50.7677 34.0619 50.7454 34.1193 50.7154 34.1716C50.6533 34.2751 50.5912 34.3797 50.5436 34.493C50.5151 34.5613 50.5006 34.6343 50.4768 34.7063C50.4432 34.8082 50.4038 34.9081 50.3816 35.0147C50.3448 35.1959 50.3257 35.3807 50.3257 35.5696C50.3257 35.7554 50.3448 35.9402 50.3816 36.1229C50.4054 36.2404 50.4483 36.3532 50.4867 36.4666C50.5074 36.5256 50.5182 36.5872 50.5425 36.643C50.5917 36.7636 50.6585 36.8754 50.7237 36.9846C50.7506 37.0307 50.7698 37.0814 50.7998 37.1244C50.9017 37.2771 51.0177 37.4184 51.145 37.5457L57.3601 43.7607C57.9056 44.3078 58.6209 44.5796 59.3362 44.5796C60.0515 44.5796 60.7657 44.3078 61.3123 43.7607C62.4044 42.6687 62.4044 40.9001 61.3123 39.8096L59.8687 38.366H74.2357C75.7781 38.366 77.0311 37.1145 77.0311 35.5705C77.0311 34.0272 75.7801 32.7725 74.2362 32.7725Z" fill="white"/>
<path d="M97.1239 39.807C96.0318 40.8991 96.0318 42.6693 97.1239 43.7582C97.671 44.3053 98.3847 44.577 99.1 44.577C99.8137 44.577 100.53 44.3053 101.075 43.7582L107.288 37.5431C107.547 37.2854 107.752 36.9753 107.896 36.6306C107.9 36.6162 107.904 36.6006 107.909 36.5877C108.033 36.2715 108.107 35.9293 108.107 35.5686C108.107 35.2078 108.033 34.8657 107.909 34.5495C107.904 34.535 107.901 34.5194 107.896 34.5065C107.753 34.1613 107.547 33.8513 107.288 33.5925L101.075 27.3805C99.9824 26.2884 98.2138 26.2884 97.1234 27.3805C96.0328 28.4726 96.0313 30.2411 97.1234 31.3316L98.567 32.7736H84.1973C82.6549 32.7736 81.4019 34.0251 81.4019 35.5691C81.4019 37.113 82.6549 38.3646 84.1973 38.3646H98.567L97.1239 39.807Z" fill="white"/>
<path d="M77.9091 156.614V134.114H81.7273V156.614H77.9091ZM68.5682 147.273V143.455H91.0682V147.273H68.5682Z" fill="white"/>
</g>
<g clip-path="url(#clip2_503_3)">
<path d="M375.492 79.1117C374.545 78.8524 373.592 78.8177 372.656 78.9161C373.144 76.868 372.85 74.7454 371.775 72.9075C370.666 71.0058 368.877 69.6322 366.738 69.0484C365.415 68.6861 364.065 68.6861 362.768 68.9625C362.58 68.2249 362.327 67.5014 361.931 66.8223C360.82 64.9192 359.03 63.5471 356.89 62.9633C355.953 62.7055 355.015 62.6517 354.098 62.7138L357.457 50.4565C358.042 48.324 357.747 46.0918 356.624 44.1695C355.514 42.2664 353.724 40.8942 351.582 40.3058C347.138 39.0957 342.556 41.667 341.357 46.0427L332.393 78.7516C327.747 77.7118 323.428 79.3018 321.263 83.1831C318.419 88.2884 317.17 94.5863 317.55 101.897C317.836 107.399 320.326 113.535 325.165 120.659C325.707 121.454 326.586 121.883 327.478 121.883C328.018 121.883 328.567 121.726 329.046 121.402C330.324 120.534 330.655 118.796 329.789 117.519C325.599 111.351 323.359 105.999 323.132 101.605C322.802 95.2739 323.788 90.1385 326.146 85.9055C327.11 84.1757 329.003 83.7782 330.919 84.1312L329.593 88.971C329.183 90.459 330.061 91.9952 331.547 92.4036C331.795 92.4719 332.045 92.504 332.288 92.504C333.516 92.504 334.64 91.6883 334.98 90.4481L337.019 83.0099C337.02 83.0037 337.023 82.9955 337.025 82.9892L346.744 47.519C347.129 46.1101 348.635 45.2914 350.102 45.695C350.824 45.8937 351.425 46.3518 351.793 46.9858C352.152 47.5997 352.248 48.3041 352.065 48.9764L346.663 68.6858C346.663 68.6889 346.66 68.692 346.66 68.6951C346.658 68.6982 346.658 68.7028 346.658 68.7065L343.709 79.469C343.3 80.957 344.176 82.4932 345.665 82.9016C347.156 83.3229 348.69 82.4327 349.097 80.9456L352.052 70.1624C352.444 68.7649 353.936 67.9425 355.41 68.353C356.13 68.5486 356.731 69.0051 357.098 69.6391C357.457 70.253 357.553 70.9605 357.37 71.6313L354.417 82.4037C354.417 82.4068 354.417 82.4114 354.415 82.415L354.015 83.8761C353.606 85.3641 354.482 86.9003 355.971 87.3087C357.464 87.7269 358.995 86.8382 359.403 85.3527L361.895 76.2547C362.079 75.5839 362.523 75.0255 363.143 74.6808C363.783 74.3247 364.525 74.2356 365.255 74.4375C365.976 74.6347 366.575 75.0912 366.946 75.7221C367.305 76.3375 367.4 77.0451 367.216 77.7143L364.056 89.2418C363.646 90.7313 364.524 92.2675 366.012 92.6743C366.259 92.7442 366.507 92.7747 366.751 92.7747C367.979 92.7747 369.105 91.959 369.445 90.7188L370.421 87.1506L370.423 87.1491C370.924 85.3158 372.58 84.114 374.012 84.4969C375.452 84.8929 376.245 86.7769 375.743 88.6086C375.727 88.6738 375.709 88.7405 375.698 88.8073C375.654 89.0397 370.944 112.395 359.105 126.551C358.115 127.734 358.272 129.497 359.457 130.486C359.978 130.925 360.616 131.139 361.247 131.139C362.045 131.139 362.839 130.798 363.392 130.135C375.893 115.192 380.776 91.9185 381.166 89.9813C382.427 85.1782 379.897 80.3161 375.493 79.109L375.492 79.1117Z" fill="white"/>
<path d="M297.373 79.0283C294.692 75.4824 290.196 74.5032 285.739 76.1744L272.348 45.0131C270.558 40.8455 265.659 38.93 261.428 40.744C257.199 42.5629 255.218 47.4348 257.011 51.6069L262.031 63.2856C261.113 63.3508 260.193 63.532 259.301 63.9155C256.428 65.151 254.631 67.7984 254.311 70.676C253.009 70.5793 251.67 70.7506 250.387 71.3008C248.347 72.177 246.765 73.7825 245.927 75.8197C245.118 77.7895 245.119 79.9313 245.884 81.8903C244.944 81.9239 244.003 82.089 243.1 82.4752C238.906 84.2815 237.071 89.4458 238.984 94.0265C239.639 95.8981 247.684 118.271 262.125 131.349C262.659 131.834 263.33 132.071 264.001 132.071C264.761 132.071 265.521 131.763 266.073 131.153C267.108 130.009 267.021 128.242 265.876 127.205C252.195 114.816 244.311 92.334 244.235 92.1088C244.212 92.0435 244.187 91.9814 244.16 91.9193C243.411 90.1719 243.936 88.2006 245.308 87.609C246.682 87.022 248.474 87.9951 249.227 89.7363L250.69 93.1403C251.145 94.1993 252.175 94.8323 253.259 94.8323C253.627 94.8323 254.002 94.7594 254.36 94.6036C255.779 93.9944 256.433 92.3505 255.824 90.934L254.364 87.5345V87.533V87.5314L251.106 79.9489C250.831 79.3112 250.829 78.5975 251.1 77.9391C251.378 77.2616 251.909 76.7259 252.594 76.4319C253.987 75.8372 255.596 76.4335 256.174 77.7756L259.897 86.4394C260.505 87.8545 262.146 88.5113 263.569 87.902C264.987 87.2913 265.641 85.649 265.031 84.2293L262.923 79.3241L260.02 72.565C259.445 71.2261 260.112 69.6474 261.51 69.0465C262.901 68.4549 264.505 69.0449 265.086 70.384L269.499 80.6538C270.109 82.0689 271.751 82.7287 273.172 82.1164C274.589 81.5057 275.244 79.8634 274.635 78.4437L270.227 68.1884C270.226 68.1853 270.226 68.1838 270.226 68.1807C270.226 68.1791 270.224 68.1776 270.223 68.1745L262.152 49.3952C261.576 48.0563 262.244 46.4776 263.642 45.8767C265.033 45.2804 266.643 45.8767 267.221 47.2188L281.745 81.0142C281.747 81.0173 281.748 81.0204 281.75 81.0256L284.796 88.1138C285.251 89.1728 286.281 89.8043 287.364 89.8043C287.732 89.8043 288.107 89.7313 288.464 89.5771C289.884 88.9663 290.539 87.324 289.929 85.9059L287.947 81.2979C289.797 80.6841 291.724 80.8161 292.918 82.3952C295.835 86.2605 297.523 91.21 298.069 97.532C298.449 101.914 296.969 107.525 293.671 114.208C292.986 115.592 293.555 117.269 294.938 117.951C295.336 118.147 295.759 118.24 296.174 118.24C297.204 118.24 298.195 117.669 298.682 116.684C302.492 108.966 304.113 102.541 303.636 97.0502C303.004 89.7545 300.897 83.6915 297.374 79.0288L297.373 79.0283Z" fill="white"/>
<path d="M335.236 32.7725H320.869L322.313 31.3306C323.405 30.24 323.405 28.4699 322.313 27.3794C321.221 26.2889 319.452 26.2873 318.362 27.3794L312.147 33.5914C312.018 33.7203 311.903 33.8616 311.801 34.0127C311.768 34.0619 311.745 34.1193 311.715 34.1716C311.653 34.2751 311.591 34.3797 311.544 34.493C311.515 34.5613 311.501 34.6343 311.477 34.7063C311.443 34.8082 311.404 34.9081 311.382 35.0147C311.345 35.1959 311.326 35.3807 311.326 35.5696C311.326 35.7554 311.345 35.9402 311.382 36.1229C311.405 36.2404 311.448 36.3532 311.487 36.4666C311.507 36.5256 311.518 36.5872 311.543 36.643C311.592 36.7636 311.658 36.8754 311.724 36.9846C311.751 37.0307 311.77 37.0814 311.8 37.1244C311.902 37.2771 312.018 37.4184 312.145 37.5457L318.36 43.7607C318.906 44.3078 319.621 44.5796 320.336 44.5796C321.051 44.5796 321.766 44.3078 322.312 43.7607C323.404 42.6687 323.404 40.9001 322.312 39.8096L320.869 38.366H335.236C336.778 38.366 338.031 37.1145 338.031 35.5705C338.031 34.0272 336.78 32.7725 335.236 32.7725Z" fill="white"/>
<path d="M294.124 39.807C293.032 40.8991 293.032 42.6693 294.124 43.7582C294.671 44.3053 295.385 44.577 296.1 44.577C296.814 44.577 297.53 44.3053 298.075 43.7582L304.288 37.5431C304.547 37.2854 304.752 36.9753 304.896 36.6306C304.9 36.6162 304.904 36.6006 304.909 36.5877C305.033 36.2715 305.107 35.9293 305.107 35.5686C305.107 35.2078 305.033 34.8657 304.909 34.5495C304.904 34.535 304.901 34.5194 304.896 34.5065C304.753 34.1613 304.547 33.8513 304.288 33.5925L298.075 27.3805C296.982 26.2884 295.214 26.2884 294.123 27.3805C293.033 28.4726 293.031 30.2411 294.123 31.3316L295.567 32.7736H281.197C279.655 32.7736 278.402 34.0251 278.402 35.5691C278.402 37.113 279.655 38.3646 281.197 38.3646H295.567L294.124 39.807Z" fill="white"/>
<path d="M319.682 142.159V145.909H304.409V142.159H319.682Z" fill="white"/>
</g>
<g clip-path="url(#clip3_503_3)">
<path d="M532.157 87.7389C532.105 82.7732 528.381 78.7522 523.813 78.7522C522.828 78.7522 521.9 78.9716 521.024 79.3132C520.868 74.9055 517.211 71.3616 512.707 71.3616C511.311 71.3616 510.015 71.7338 508.857 72.3331C507.426 69.8178 504.73 68.0926 501.602 68.0926C500.63 68.0926 499.711 68.2898 498.845 68.5921V55.8813C498.845 51.3402 495.1 47.6467 490.497 47.6467C485.892 47.6467 482.15 51.3402 482.15 55.8813V89.7987C477.396 90.0228 473.65 92.6955 472.587 97.0126C471.195 102.687 471.654 109.09 473.953 116.041C475.683 121.274 479.709 126.536 486.257 132.124C486.783 132.574 487.427 132.795 488.069 132.795C488.86 132.795 489.643 132.462 490.197 131.814C491.198 130.64 491.058 128.877 489.885 127.875C484.216 123.034 480.64 118.463 479.259 114.288C477.267 108.265 476.861 103.051 478.017 98.3492C478.488 96.4269 480.205 95.5429 482.151 95.3772V100.395C482.151 101.939 483.403 103.191 484.945 103.191C486.489 103.191 487.741 101.939 487.741 100.395L487.74 55.8818C487.74 54.4237 488.977 53.2359 490.499 53.2359C492.02 53.2359 493.256 54.4222 493.256 55.8818V87.4989C493.256 89.0428 494.507 90.2944 496.051 90.2944C497.594 90.2944 498.847 89.0429 498.847 87.4989V76.329C498.847 74.871 500.082 73.6831 501.604 73.6831C503.126 73.6831 504.361 74.8694 504.361 76.329V89.0252C504.361 90.5691 505.613 91.8207 507.157 91.8207C508.701 91.8207 509.952 90.5692 509.952 89.0252V79.5933C509.952 78.1353 511.188 76.9506 512.708 76.9506C514.228 76.9506 515.464 78.1353 515.464 79.5933V91.5468C515.464 93.0907 516.715 94.3423 518.259 94.3423C519.803 94.3423 521.054 93.0908 521.054 91.5468V87.8466C521.054 85.9481 522.318 84.3421 523.815 84.3421C525.306 84.3421 526.569 85.9481 526.569 87.8466C526.569 87.9134 526.572 87.9832 526.577 88.05C526.596 88.2886 528.227 112.056 520.549 128.839C519.908 130.244 520.525 131.903 521.929 132.544C522.304 132.715 522.698 132.796 523.088 132.796C524.148 132.796 525.161 132.191 525.631 131.163C533.735 113.444 532.294 89.712 532.158 87.7391L532.157 87.7389Z" fill="white"/>
<path d="M504.665 61.7635C506.14 62.2149 507.703 61.3883 508.155 59.9126C508.695 58.1622 508.967 56.3382 508.967 54.4926C508.967 44.3072 500.682 36.0221 490.498 36.0221C480.314 36.0221 472.03 44.3075 472.03 54.4926C472.03 57.5276 472.784 60.5379 474.209 63.1977C474.713 64.1392 475.676 64.6734 476.673 64.6734C477.119 64.6734 477.57 64.5683 477.992 64.3426C479.353 63.6144 479.865 61.9209 479.137 60.5602C478.144 58.7078 477.62 56.6105 477.62 54.4926C477.62 47.3899 483.396 41.6105 490.498 41.6105C497.601 41.6105 503.381 47.3887 503.381 54.4926C503.381 55.7819 503.191 57.0525 502.816 58.2704C502.36 59.7455 503.189 61.3101 504.665 61.7635Z" fill="white"/>
<path d="M552.857 53.8826L551.385 55.3535V46.4076C551.385 44.836 550.11 43.5593 548.538 43.5593C546.965 43.5593 545.69 44.836 545.69 46.4076V55.3535L544.218 53.8826C543.105 52.7699 541.303 52.7699 540.19 53.8826C539.079 54.9953 539.079 56.7973 540.19 57.9083L546.521 64.2359C546.785 64.5017 547.103 64.7121 547.454 64.8566C547.469 64.8629 547.483 64.8661 547.496 64.8714C547.818 64.9995 548.169 65.0739 548.536 65.0739C548.904 65.0739 549.252 64.9995 549.574 64.8714C549.589 64.8666 549.603 64.8635 549.617 64.8566C549.968 64.7127 550.286 64.5017 550.549 64.2359L556.88 57.9083C557.993 56.7972 557.993 54.9959 556.88 53.8826C555.773 52.7699 553.97 52.7699 552.857 53.8826Z" fill="white"/>
<path d="M544.22 21.1911L545.692 19.7203V28.6662C545.692 30.2378 546.967 31.5145 548.54 31.5145C550.113 31.5145 551.387 30.2378 551.387 28.6662V19.7188L552.859 21.1897C553.415 21.7455 554.144 22.0239 554.872 22.0239C555.601 22.0239 556.331 21.7455 556.886 21.1897C557.997 20.077 557.997 18.2734 556.886 17.164L550.555 10.8364C550.291 10.5706 549.973 10.3618 549.622 10.2157C549.607 10.2109 549.593 10.2094 549.58 10.2025C549.258 10.0744 548.908 10 548.542 10C548.174 10 547.826 10.0744 547.502 10.2025C547.487 10.2072 547.473 10.2088 547.46 10.2157C547.108 10.3612 546.79 10.5722 546.527 10.8364L540.196 17.164C539.083 18.2751 539.083 20.0786 540.196 21.1897C541.304 22.3045 543.107 22.3045 544.22 21.1912L544.22 21.1911Z" fill="white"/>
<path d="M530.724 40.7917H539.668C541.241 40.7917 542.515 39.5166 542.515 37.9451C542.515 36.372 541.239 35.0968 539.668 35.0968H530.722L532.193 33.6245C533.306 32.5118 533.306 30.7099 532.193 29.5988C531.08 28.4877 529.278 28.4861 528.167 29.5988L521.836 35.9296C521.703 36.0625 521.585 36.2065 521.481 36.3621C521.46 36.3942 521.446 36.4317 521.425 36.466C521.349 36.5909 521.275 36.7154 521.219 36.8514C521.198 36.9031 521.187 36.9585 521.169 37.0118C521.127 37.133 521.081 37.2533 521.057 37.3825C521.02 37.5671 521 37.7553 521 37.9462C521 38.1371 521.02 38.3254 521.057 38.5099C521.08 38.6249 521.122 38.732 521.159 38.8422C521.18 38.9086 521.194 38.9766 521.221 39.0415C521.273 39.1681 521.342 39.2814 521.412 39.398C521.438 39.4418 521.456 39.4887 521.483 39.5309C521.587 39.6864 521.705 39.8304 521.838 39.9617L528.169 46.2877C528.725 46.8435 529.453 47.1219 530.182 47.1219C530.911 47.1219 531.64 46.8435 532.196 46.2877C533.307 45.175 533.307 43.3714 532.196 42.262L530.724 40.7917Z" fill="white"/>
<path d="M575.243 39.9506C575.505 39.688 575.714 39.3737 575.857 39.0241C575.863 39.0078 575.865 38.9919 575.871 38.9772C575.998 38.655 576.072 38.308 576.072 37.942V37.9404C576.072 37.5728 575.998 37.2258 575.87 36.9036C575.864 36.8889 575.862 36.8746 575.857 36.8599C575.713 36.5081 575.5 36.1907 575.236 35.927L568.908 29.5994C567.796 28.4867 565.994 28.4867 564.883 29.5994C563.772 30.7121 563.77 32.5141 564.883 33.6251L566.35 35.0927H557.408C555.835 35.0927 554.562 36.3694 554.562 37.9409C554.562 39.5125 555.837 40.7875 557.408 40.7875H566.352L564.882 42.2598C563.77 43.3725 563.77 45.1761 564.882 46.2856C565.437 46.8414 566.166 47.1198 566.895 47.1198C567.624 47.1198 568.353 46.8414 568.908 46.2856L575.238 39.9532C575.241 39.9522 575.243 39.9522 575.243 39.9506Z" fill="white"/>
</g>
</g>
<defs>
<clipPath id="clip0_503_3">
<rect width="675" height="337" fill="white" transform="translate(-42 -54)"/>
</clipPath>
<clipPath id="clip1_503_3">
<rect width="159" height="159" fill="white"/>
</clipPath>
<clipPath id="clip2_503_3">
<rect width="159" height="159" fill="white" transform="translate(229)"/>
</clipPath>
<clipPath id="clip3_503_3">
<rect width="159" height="159" fill="white" transform="translate(417)"/>
</clipPath>
</defs>
</svg>
